<svg width="191" height="34" viewBox="0 0 191 34" fill="none" xmlns="http://www.w3.org/2000/svg">
<g clip-path="url(#clip0_1_138)">
<path d="M17 34C26.3888 34 34 26.3888 34 17C34 7.61116 26.3888 0 17 0C7.61116 0 0 7.61116 0 17C0 26.3888 7.61116 34 17 34Z" fill="#4971FF"/>
<path d="M12.6562 24.6688L21.3976 33.4101C28.6373 31.4795 34.0001 24.8833 34.0001 17V16.5173L27.1357 10.1893L12.6562 24.6688Z" fill="black" fill-opacity="0.16"/>
<path d="M17.4291 20.8076C18.1799 21.5584 18.1799 22.8454 17.4291 23.5962L15.8739 25.1514C15.1231 25.9022 13.836 25.9022 13.0852 25.1514L6.27452 18.2871C5.52373 17.5363 5.52373 16.2492 6.27452 15.4984L7.82972 13.9432C8.58051 13.1924 9.86758 13.1924 10.6184 13.9432L17.4291 20.8076Z" fill="white"/>
<path d="M23.3817 8.95585C24.1325 8.20506 25.4196 8.20506 26.1703 8.95585L27.7256 10.5111C28.4763 11.2618 28.4763 12.5489 27.7256 13.2997L15.9274 25.0442C15.1767 25.795 13.8896 25.795 13.1388 25.0442L11.5836 23.489C10.8328 22.7382 10.8328 21.4511 11.5836 20.7003L23.3817 8.95585Z" fill="white"/>
</g>
<path d="M54.8662 11.1338H49.6738V26H45.5605V11.1338H40.3936V7.79492H54.8662V11.1338ZM71.4971 26H67.0283L65.7334 21.9502H59.2588L57.9766 26H53.5332L60.1602 7.79492H65.0225L71.4971 26ZM64.7939 18.8018L62.8389 12.6826C62.695 12.2256 62.5934 11.6797 62.5342 11.0449H62.4326C62.3903 11.5781 62.2845 12.1071 62.1152 12.6318L60.1348 18.8018H64.7939ZM72.9316 25.3018V21.2393C73.668 21.8571 74.4678 22.3226 75.3311 22.6357C76.1943 22.9404 77.0661 23.0928 77.9463 23.0928C78.4626 23.0928 78.9111 23.0462 79.292 22.9531C79.6813 22.86 80.0029 22.7331 80.2568 22.5723C80.5192 22.403 80.7139 22.2083 80.8408 21.9883C80.9678 21.7598 81.0312 21.5143 81.0312 21.252C81.0312 20.8965 80.9297 20.5791 80.7266 20.2998C80.5234 20.0205 80.2441 19.7624 79.8887 19.5254C79.5417 19.2884 79.127 19.0599 78.6445 18.8398C78.1621 18.6198 77.6416 18.3955 77.083 18.167C75.6611 17.5745 74.599 16.8509 73.8965 15.9961C73.2025 15.1413 72.8555 14.1087 72.8555 12.8984C72.8555 11.9505 73.0459 11.138 73.4268 10.4609C73.8076 9.77539 74.3239 9.21257 74.9756 8.77246C75.6357 8.33236 76.3975 8.01074 77.2607 7.80762C78.124 7.59603 79.0381 7.49023 80.0029 7.49023C80.9508 7.49023 81.7887 7.54948 82.5166 7.66797C83.2529 7.77799 83.93 7.9515 84.5479 8.18848V11.9844C84.2432 11.7728 83.9089 11.5866 83.5449 11.4258C83.1895 11.265 82.8213 11.1338 82.4404 11.0322C82.0596 10.9222 81.6787 10.8418 81.2979 10.791C80.9255 10.7402 80.57 10.7148 80.2314 10.7148C79.766 10.7148 79.3428 10.7614 78.9619 10.8545C78.5811 10.9391 78.2594 11.0618 77.9971 11.2227C77.7347 11.3835 77.5316 11.5781 77.3877 11.8066C77.2438 12.0267 77.1719 12.2764 77.1719 12.5557C77.1719 12.8604 77.2523 13.1354 77.4131 13.3809C77.5739 13.6178 77.8024 13.8464 78.0986 14.0664C78.3949 14.278 78.7546 14.4896 79.1777 14.7012C79.6009 14.9043 80.0791 15.1159 80.6123 15.3359C81.3402 15.6406 81.9919 15.9665 82.5674 16.3135C83.1514 16.652 83.6507 17.0371 84.0654 17.4688C84.4801 17.9004 84.7975 18.3955 85.0176 18.9541C85.2376 19.5042 85.3477 20.1475 85.3477 20.8838C85.3477 21.8994 85.153 22.7542 84.7637 23.4482C84.3828 24.1338 83.8623 24.6924 83.2021 25.124C82.542 25.5472 81.7718 25.8519 80.8916 26.0381C80.0199 26.2243 79.0973 26.3174 78.124 26.3174C77.1253 26.3174 76.1732 26.2327 75.2676 26.0635C74.3704 25.8942 73.5918 25.6403 72.9316 25.3018ZM103.477 26H98.2969L92.9902 18.0908C92.8887 17.9385 92.7279 17.6042 92.5078 17.0879H92.4443V26H88.3438V7.79492H92.4443V16.4023H92.5078C92.6094 16.1654 92.7786 15.8268 93.0156 15.3867L98.043 7.79492H102.931L96.583 16.4785L103.477 26Z" fill="#484848"/>
<path d="M104.391 25.3018V21.2393C105.127 21.8571 105.927 22.3226 106.79 22.6357C107.653 22.9404 108.525 23.0928 109.405 23.0928C109.922 23.0928 110.37 23.0462 110.751 22.9531C111.14 22.86 111.462 22.7331 111.716 22.5723C111.978 22.403 112.173 22.2083 112.3 21.9883C112.427 21.7598 112.49 21.5143 112.49 21.252C112.49 20.8965 112.389 20.5791 112.186 20.2998C111.982 20.0205 111.703 19.7624 111.348 19.5254C111.001 19.2884 110.586 19.0599 110.104 18.8398C109.621 18.6198 109.101 18.3955 108.542 18.167C107.12 17.5745 106.058 16.8509 105.355 15.9961C104.661 15.1413 104.314 14.1087 104.314 12.8984C104.314 11.9505 104.505 11.138 104.886 10.4609C105.267 9.77539 105.783 9.21257 106.435 8.77246C107.095 8.33236 107.856 8.01074 108.72 7.80762C109.583 7.59603 110.497 7.49023 111.462 7.49023C112.41 7.49023 113.248 7.54948 113.976 7.66797C114.712 7.77799 115.389 7.9515 116.007 8.18848V11.9844C115.702 11.7728 115.368 11.5866 115.004 11.4258C114.648 11.265 114.28 11.1338 113.899 11.0322C113.519 10.9222 113.138 10.8418 112.757 10.791C112.384 10.7402 112.029 10.7148 111.69 10.7148C111.225 10.7148 110.802 10.7614 110.421 10.8545C110.04 10.9391 109.718 11.0618 109.456 11.2227C109.194 11.3835 108.991 11.5781 108.847 11.8066C108.703 12.0267 108.631 12.2764 108.631 12.5557C108.631 12.8604 108.711 13.1354 108.872 13.3809C109.033 13.6178 109.261 13.8464 109.558 14.0664C109.854 14.278 110.214 14.4896 110.637 14.7012C111.06 14.9043 111.538 15.1159 112.071 15.3359C112.799 15.6406 113.451 15.9665 114.026 16.3135C114.61 16.652 115.11 17.0371 115.524 17.4688C115.939 17.9004 116.257 18.3955 116.477 18.9541C116.697 19.5042 116.807 20.1475 116.807 20.8838C116.807 21.8994 116.612 22.7542 116.223 23.4482C115.842 24.1338 115.321 24.6924 114.661 25.124C114.001 25.5472 113.231 25.8519 112.351 26.0381C111.479 26.2243 110.556 26.3174 109.583 26.3174C108.584 26.3174 107.632 26.2327 106.727 26.0635C105.829 25.8942 105.051 25.6403 104.391 25.3018ZM131.127 13L125.846 27.041C124.576 30.418 122.663 32.1064 120.107 32.1064C119.134 32.1064 118.334 31.9964 117.708 31.7764V28.5771C118.241 28.8903 118.821 29.0469 119.447 29.0469C120.48 29.0469 121.199 28.5602 121.605 27.5869L122.291 25.9746L117.01 13H121.453L123.878 20.9092C124.03 21.4001 124.149 21.9798 124.233 22.6484H124.284C124.36 22.1576 124.5 21.5863 124.703 20.9346L127.153 13H131.127ZM131.889 25.6572V22.4072C132.549 22.805 133.205 23.1012 133.856 23.2959C134.517 23.4906 135.139 23.5879 135.723 23.5879C136.434 23.5879 136.992 23.4906 137.398 23.2959C137.813 23.1012 138.021 22.805 138.021 22.4072C138.021 22.1533 137.927 21.9417 137.741 21.7725C137.555 21.6032 137.314 21.4551 137.018 21.3281C136.73 21.2012 136.412 21.0869 136.065 20.9854C135.718 20.8838 135.384 20.7695 135.062 20.6426C134.546 20.4479 134.089 20.2406 133.691 20.0205C133.302 19.792 132.972 19.5296 132.701 19.2334C132.439 18.9372 132.236 18.5944 132.092 18.2051C131.956 17.8158 131.889 17.3545 131.889 16.8213C131.889 16.0934 132.045 15.4671 132.358 14.9424C132.68 14.4176 133.103 13.9902 133.628 13.6602C134.161 13.3216 134.766 13.0762 135.443 12.9238C136.129 12.763 136.84 12.6826 137.576 12.6826C138.152 12.6826 138.736 12.7292 139.328 12.8223C139.921 12.9069 140.505 13.0339 141.08 13.2031V16.3008C140.572 16.0046 140.026 15.7845 139.442 15.6406C138.867 15.4883 138.3 15.4121 137.741 15.4121C137.479 15.4121 137.229 15.4375 136.992 15.4883C136.764 15.5306 136.561 15.5983 136.383 15.6914C136.205 15.776 136.065 15.8903 135.964 16.0342C135.862 16.1696 135.812 16.3262 135.812 16.5039C135.812 16.7409 135.888 16.944 136.04 17.1133C136.192 17.2826 136.391 17.4307 136.637 17.5576C136.882 17.6761 137.153 17.7861 137.449 17.8877C137.754 17.9808 138.054 18.0781 138.351 18.1797C138.884 18.3659 139.366 18.569 139.798 18.7891C140.229 19.0091 140.598 19.2673 140.902 19.5635C141.215 19.8597 141.452 20.2067 141.613 20.6045C141.783 21.0023 141.867 21.4762 141.867 22.0264C141.867 22.7965 141.698 23.4567 141.359 24.0068C141.029 24.5485 140.585 24.9928 140.026 25.3398C139.476 25.6784 138.837 25.9238 138.109 26.0762C137.39 26.237 136.641 26.3174 135.862 26.3174C134.432 26.3174 133.107 26.0973 131.889 25.6572ZM152.049 25.8477C151.456 26.1608 150.563 26.3174 149.37 26.3174C146.543 26.3174 145.13 24.849 145.13 21.9121V15.958H143.022V13H145.13V10.1943L149.129 9.05176V13H152.049V15.958H149.129V21.2139C149.129 22.568 149.666 23.2451 150.741 23.2451C151.164 23.2451 151.6 23.1224 152.049 22.877V25.8477ZM165.899 20.6426H157.419C157.554 22.5299 158.743 23.4736 160.986 23.4736C162.417 23.4736 163.674 23.1351 164.757 22.458V25.3525C163.555 25.9958 161.993 26.3174 160.072 26.3174C157.973 26.3174 156.344 25.7376 155.185 24.5781C154.025 23.4102 153.445 21.7852 153.445 19.7031C153.445 17.5449 154.072 15.8353 155.324 14.5742C156.577 13.3132 158.117 12.6826 159.945 12.6826C161.841 12.6826 163.305 13.2454 164.338 14.3711C165.379 15.4967 165.899 17.0244 165.899 18.9541V20.6426ZM162.18 18.1797C162.18 16.3177 161.426 15.3867 159.92 15.3867C159.277 15.3867 158.718 15.6533 158.244 16.1865C157.779 16.7197 157.495 17.3841 157.394 18.1797H162.18ZM188.929 26H184.93V18.5859C184.93 16.6986 184.236 15.7549 182.848 15.7549C182.188 15.7549 181.65 16.0384 181.235 16.6055C180.821 17.1725 180.613 17.8792 180.613 18.7256V26H176.602V18.5098C176.602 16.6732 175.92 15.7549 174.558 15.7549C173.872 15.7549 173.322 16.0257 172.907 16.5674C172.501 17.109 172.298 17.8454 172.298 18.7764V26H168.286V13H172.298V15.0312H172.349C172.763 14.3372 173.343 13.7744 174.088 13.3428C174.841 12.9027 175.662 12.6826 176.551 12.6826C178.387 12.6826 179.644 13.4909 180.321 15.1074C181.312 13.4909 182.767 12.6826 184.688 12.6826C187.515 12.6826 188.929 14.4261 188.929 17.9131V26Z" fill="#4971FF"/>
<defs>
<clipPath id="clip0_1_138">
<rect width="34" height="34" fill="white"/>
</clipPath>
</defs>
</svg>
