<svg width="21" height="22" viewBox="0 0 21 22" fill="none" xmlns="http://www.w3.org/2000/svg">
<path fill-rule="evenodd" clip-rule="evenodd" d="M18.8064 6.62357L18.184 5.54348C17.6574 4.62956 16.4905 4.31427 15.5753 4.83867V4.83867C15.1397 5.0953 14.6198 5.16811 14.1305 5.04104C13.6411 4.91398 13.2224 4.59747 12.9666 4.16133C12.8021 3.8841 12.7137 3.56835 12.7103 3.24599V3.24599C12.7251 2.72918 12.5302 2.22836 12.1698 1.85762C11.8094 1.48689 11.3143 1.27782 10.7973 1.27803H9.54326C9.03672 1.27802 8.55107 1.47987 8.19376 1.8389C7.83644 2.19793 7.63693 2.68455 7.63937 3.19107V3.19107C7.62435 4.23688 6.77224 5.07677 5.72632 5.07666C5.40397 5.07331 5.08821 4.9849 4.81099 4.82036V4.82036C3.89582 4.29597 2.72887 4.61125 2.20229 5.52517L1.5341 6.62357C1.00817 7.53635 1.31916 8.70256 2.22975 9.23226V9.23226C2.82166 9.57399 3.18629 10.2055 3.18629 10.889C3.18629 11.5725 2.82166 12.204 2.22975 12.5458V12.5458C1.32031 13.0719 1.00898 14.2353 1.5341 15.1453V15.1453L2.16568 16.2346C2.4124 16.6797 2.82636 17.0082 3.31595 17.1474C3.80554 17.2865 4.3304 17.2249 4.77438 16.976V16.976C5.21084 16.7213 5.73094 16.6515 6.2191 16.7822C6.70725 16.9128 7.12299 17.233 7.37392 17.6716C7.53845 17.9488 7.62686 18.2646 7.63021 18.587V18.587C7.63021 19.6435 8.48671 20.5 9.54326 20.5H10.7973C11.8502 20.5 12.7053 19.6491 12.7103 18.5961V18.5961C12.7079 18.088 12.9086 17.6 13.2679 17.2407C13.6272 16.8814 14.1152 16.6806 14.6233 16.6831C14.9449 16.6917 15.2594 16.7797 15.5387 16.9394V16.9394C16.4515 17.4653 17.6177 17.1543 18.1474 16.2437V16.2437L18.8064 15.1453C19.0615 14.7075 19.1315 14.186 19.001 13.6963C18.8704 13.2067 18.55 12.7893 18.1108 12.5366V12.5366C17.6715 12.2839 17.3511 11.8665 17.2206 11.3769C17.09 10.8873 17.16 10.3658 17.4151 9.92792C17.581 9.63829 17.8211 9.39815 18.1108 9.23226V9.23226C19.0159 8.70285 19.3262 7.54345 18.8064 6.63272V6.63272V6.62357Z" stroke="#484848" stroke-width="2" stroke-linecap="round" stroke-linejoin="round"/>
<circle cx="10.1747" cy="10.889" r="2.63616" stroke="#484848" stroke-width="2" stroke-linecap="round" stroke-linejoin="round"/>
</svg>
