<svg width="20" height="18" viewBox="0 0 20 18" fill="none" xmlns="http://www.w3.org/2000/svg">
<path d="M13.6 17V15.2222C13.6 14.2792 13.2207 13.3749 12.5456 12.7081C11.8705 12.0413 10.9548 11.6667 10 11.6667H4.6C3.64522 11.6667 2.72955 12.0413 2.05442 12.7081C1.37928 13.3749 1 14.2792 1 15.2222V17M19 17V15.2222C18.9994 14.4344 18.7339 13.6691 18.2452 13.0465C17.7565 12.4239 17.0723 11.9792 16.3 11.7822M13.6 1.11556C14.3744 1.31138 15.0607 1.75618 15.5509 2.37983C16.041 3.00348 16.3071 3.77052 16.3071 4.56C16.3071 5.34948 16.041 6.11652 15.5509 6.74017C15.0607 7.36382 14.3744 7.80862 13.6 8.00444M10.9 4.55556C10.9 6.51923 9.28822 8.11111 7.3 8.11111C5.31177 8.11111 3.7 6.51923 3.7 4.55556C3.7 2.59188 5.31177 1 7.3 1C9.28822 1 10.9 2.59188 10.9 4.55556Z" stroke="#484848" stroke-width="2" stroke-linecap="round" stroke-linejoin="round"/>
</svg>
